<?xml version="1.0" standalone="no"?>
<!DOCTYPE svg PUBLIC "-//W3C//DTD SVG 20010904//EN"
 "http://www.w3.org/TR/2001/REC-SVG-20010904/DTD/svg10.dtd">
<svg version="1.0" xmlns="http://www.w3.org/2000/svg"
 width="600.000000pt" height="600.000000pt" viewBox="0 0 600.000000 600.000000"
 preserveAspectRatio="xMidYMid meet">
<metadata>
Created by potrace 1.11, written by Peter Selinger 2001-2013
</metadata>
<g transform="translate(0.000000,600.000000) scale(0.100000,-0.100000)"
fill="#000000" stroke="none">
<path d="M2955 5895 c-63 -38 -80 -48 -137 -79 -29 -16 -55 -32 -58 -36 -3 -3
-26 -17 -52 -30 -27 -13 -48 -27 -48 -31 0 -4 -13 -10 -30 -14 -16 -4 -30 -10
-30 -14 0 -4 -22 -18 -50 -32 -27 -13 -50 -27 -50 -30 0 -3 -22 -16 -50 -29
-27 -13 -50 -27 -50 -32 0 -5 -4 -6 -10 -3 -5 3 -10 1 -10 -4 0 -6 -9 -11 -20
-11 -11 0 -20 -5 -20 -11 0 -5 -4 -8 -9 -5 -5 3 -11 -1 -15 -9 -3 -8 -10 -15
-17 -15 -6 0 -23 -9 -39 -20 -15 -11 -30 -17 -34 -13 -3 3 -6 2 -6 -3 0 -5
-35 -27 -77 -49 -43 -22 -79 -43 -81 -47 -2 -4 -27 -19 -55 -33 -29 -14 -65
-34 -82 -45 -16 -11 -52 -31 -79 -46 -27 -14 -56 -32 -64 -40 -12 -12 -18 -15
-37 -14 -5 0 -20 -11 -50 -37 -7 -7 -21 -13 -29 -13 -9 0 -16 -5 -16 -11 0 -5
-4 -7 -10 -4 -5 3 -10 2 -10 -2 0 -5 -22 -20 -50 -34 -27 -13 -50 -28 -50 -32
0 -5 -4 -5 -10 -2 -5 3 -10 1 -10 -4 0 -6 -9 -11 -20 -11 -11 0 -20 -4 -20 -8
0 -5 -27 -22 -60 -38 -33 -16 -60 -32 -60 -37 0 -4 -22 -17 -50 -29 -27 -12
-50 -25 -50 -30 0 -4 -6 -8 -14 -8 -7 0 -24 -8 -37 -19 -13 -10 -35 -22 -49
-26 -14 -4 -35 -16 -47 -28 -22 -20 -111 -71 -146 -83 -9 -3 -17 -11 -17 -16
0 -5 -4 -6 -10 -3 -5 3 -10 2 -10 -3 0 -5 -18 -17 -40 -27 -22 -10 -40 -22
-40 -27 0 -5 -4 -6 -10 -3 -5 3 -10 1 -10 -4 0 -6 -9 -11 -20 -11 -11 0 -20
-5 -20 -11 0 -5 -4 -7 -10 -4 -5 3 -10 2 -10 -3 0 -5 -18 -17 -40 -27 -22 -10
-40 -23 -40 -28 0 -6 -3 -8 -6 -4 -3 3 -11 2 -18 -4 -30 -25 -85 -57 -90 -51
-3 3 -6 1 -6 -5 0 -9 -34 -25 -43 -20 -1 1 -11 -7 -23 -16 -20 -18 -20 -18
-20 -1476 1 -1374 2 -1458 18 -1475 10 -10 18 -14 18 -10 0 4 9 -1 19 -10 11
-10 25 -19 33 -20 14 -2 75 -38 95 -56 7 -6 13 -8 13 -5 0 7 84 -48 88 -58 2
-4 8 -5 13 -1 5 3 9 0 9 -5 0 -6 9 -11 20 -11 11 0 20 -5 20 -11 0 -5 5 -7 10
-4 6 3 10 2 10 -3 0 -5 18 -17 40 -27 22 -10 40 -22 40 -27 0 -5 5 -6 10 -3 6
3 10 2 10 -2 0 -5 30 -24 67 -43 38 -19 86 -46 108 -60 22 -14 49 -31 60 -38
11 -6 31 -18 45 -24 14 -7 27 -15 30 -18 3 -4 26 -17 52 -29 27 -13 48 -26 48
-29 0 -4 27 -20 60 -36 33 -16 60 -33 60 -38 0 -4 3 -7 8 -7 17 3 31 -2 44
-14 7 -7 34 -23 61 -37 26 -14 47 -29 47 -33 0 -5 5 -5 10 -2 6 3 10 1 10 -4
0 -6 7 -11 16 -11 8 0 22 -6 29 -13 34 -30 50 -42 52 -39 7 6 23 1 35 -11 7
-7 33 -24 58 -38 25 -13 47 -26 50 -29 7 -7 57 -35 118 -65 28 -15 52 -31 52
-37 0 -6 3 -8 6 -5 4 4 19 -2 33 -11 14 -10 47 -29 74 -43 26 -13 47 -28 47
-32 0 -5 5 -5 10 -2 6 3 10 2 10 -2 0 -5 18 -16 40 -26 22 -9 40 -22 40 -28 0
-5 4 -7 10 -4 5 3 10 1 10 -4 0 -6 9 -11 20 -11 11 0 20 -5 20 -11 0 -5 4 -7
10 -4 6 3 10 2 10 -3 0 -5 18 -17 40 -27 22 -10 40 -22 40 -27 0 -5 5 -6 10
-3 6 3 10 1 10 -6 0 -7 3 -10 6 -7 5 6 53 -22 99 -57 10 -8 27 -15 37 -15 10
0 18 -4 18 -9 0 -4 23 -19 50 -32 28 -13 50 -26 50 -30 0 -3 23 -16 50 -29 28
-13 50 -27 50 -31 0 -4 12 -12 28 -18 15 -6 47 -23 71 -37 l44 -26 41 21 c23
12 55 31 71 41 17 10 53 31 80 46 28 14 52 30 55 34 3 3 26 17 53 30 26 13 47
27 47 32 0 4 9 8 19 8 11 0 26 6 33 13 7 7 33 24 58 38 25 13 50 29 56 34 6 6
30 19 53 29 22 11 41 23 41 28 0 5 5 6 10 3 6 -3 10 -1 10 4 0 6 9 11 20 11
11 0 20 5 20 11 0 5 5 7 10 4 6 -3 10 -1 10 4 0 6 18 19 40 28 22 10 40 21 40
26 0 4 5 5 10 2 6 -3 10 -3 10 2 0 4 21 19 48 32 26 14 59 33 73 43 14 9 29
15 33 11 3 -3 6 -1 6 5 0 6 24 22 53 37 88 45 112 58 117 65 3 4 25 17 49 30
25 12 51 29 59 36 12 13 27 18 35 12 2 -2 11 4 20 12 34 31 47 41 47 34 0 -4
9 1 20 11 11 10 20 14 20 9 0 -5 4 -4 8 2 4 6 27 21 52 35 25 13 51 30 58 36
13 12 27 17 45 14 4 0 7 3 7 7 0 5 27 22 60 38 33 16 60 32 60 36 0 4 21 17
48 29 26 12 49 24 52 28 3 4 16 12 30 19 14 6 34 18 45 24 11 7 38 24 60 38
22 14 70 41 108 60 37 19 67 37 67 40 0 4 23 17 50 30 28 13 50 27 50 32 0 5
5 6 10 3 6 -3 10 -1 10 4 0 6 9 11 20 11 11 0 20 5 20 11 0 5 4 8 9 5 5 -4 11
-3 13 1 5 12 88 64 88 56 0 -5 4 -3 8 3 4 6 32 24 62 39 30 16 63 35 73 43 9
8 17 12 17 8 0 -4 7 0 17 9 15 15 16 133 16 1475 0 1340 -1 1460 -17 1475 -9
9 -16 13 -16 9 0 -4 -8 0 -17 8 -10 8 -44 28 -75 44 -32 15 -58 32 -58 37 0 4
-4 5 -10 2 -5 -3 -10 -3 -10 2 0 4 -18 17 -40 27 -22 11 -40 23 -40 28 0 5 -4
6 -10 3 -5 -3 -10 -1 -10 4 0 6 -9 11 -20 11 -11 0 -20 5 -20 11 0 5 -4 7 -10
4 -5 -3 -10 -2 -10 3 0 5 -18 17 -40 27 -22 10 -40 22 -40 27 0 5 -4 6 -10 3
-5 -3 -10 -2 -10 3 0 5 -8 13 -17 16 -30 11 -135 70 -218 124 -11 6 -31 18
-45 24 -14 7 -27 15 -30 18 -3 3 -26 15 -52 28 -27 13 -48 26 -48 30 0 4 -27
20 -60 36 -33 16 -60 33 -60 38 0 4 -9 8 -19 8 -11 0 -26 6 -33 13 -7 7 -34
23 -60 37 -27 14 -48 29 -48 33 0 5 -4 5 -10 2 -5 -3 -10 -1 -10 4 0 6 -7 11
-16 11 -8 0 -22 6 -29 13 -30 26 -45 37 -50 37 -19 -1 -25 2 -38 14 -7 8 -36
26 -63 41 -27 14 -62 35 -79 45 -16 10 -50 29 -75 42 -25 13 -50 30 -57 38 -7
8 -13 11 -13 6 0 -5 -6 -4 -12 2 -7 5 -40 25 -73 43 -33 18 -63 37 -67 43 -4
6 -8 7 -8 3 0 -5 -13 1 -29 12 -16 12 -34 21 -40 21 -7 0 -14 7 -17 15 -4 8
-10 12 -15 9 -5 -3 -9 0 -9 5 0 6 -9 11 -20 11 -11 0 -20 5 -20 11 0 5 -4 7
-10 4 -5 -3 -10 -2 -10 3 0 5 -18 17 -40 27 -22 10 -40 22 -40 27 0 5 -4 7 -9
4 -5 -4 -11 -3 -13 1 -1 5 -23 19 -48 32 -25 14 -51 31 -58 38 -8 7 -18 11
-23 8 -5 -4 -9 -1 -9 5 0 6 -4 8 -10 5 -5 -3 -10 -2 -10 3 0 5 -22 20 -50 33
-27 13 -50 26 -50 30 0 3 -22 16 -50 29 -27 13 -50 27 -50 31 0 4 -12 12 -27
18 -16 6 -46 22 -68 36 -49 30 -51 30 -100 0z"/>
</g>
</svg>
