<?xml version="1.0" standalone="no"?>
<!DOCTYPE svg PUBLIC "-//W3C//DTD SVG 20010904//EN"
 "http://www.w3.org/TR/2001/REC-SVG-20010904/DTD/svg10.dtd">
<svg version="1.0" xmlns="http://www.w3.org/2000/svg"
 width="756.000000pt" height="756.000000pt" viewBox="0 0 756.000000 756.000000"
 preserveAspectRatio="xMidYMid meet">
<metadata>
Created by potrace 1.11, written by Peter Selinger 2001-2013
</metadata>
<g transform="translate(0.000000,756.000000) scale(0.100000,-0.100000)"
fill="#000000" stroke="none">
<path d="M0 3780 l0 -3780 3780 0 3780 0 0 3780 0 3780 -3780 0 -3780 0 0
-3780z m3325 3127 c83 -16 174 -52 251 -98 70 -42 197 -147 242 -199 18 -22
39 -40 45 -40 7 0 39 28 72 61 220 226 480 326 705 273 206 -48 381 -209 461
-424 29 -77 32 -96 33 -205 1 -157 -22 -243 -106 -386 -86 -147 -380 -464
-854 -920 -272 -261 -257 -249 -310 -249 -52 0 -4 -41 -447 384 -219 211 -490
495 -611 640 -88 106 -142 197 -179 303 -27 79 -30 100 -31 213 0 141 10 182
77 315 56 111 174 228 279 279 128 61 243 78 373 53z m-2020 -2782 c162 -24
212 -51 362 -198 67 -65 127 -131 133 -147 7 -16 10 -54 7 -87 -2 -32 -12
-164 -21 -293 -9 -129 -26 -352 -37 -495 -30 -389 -34 -702 -15 -1100 14 -270
20 -345 33 -364 15 -23 18 -24 100 -17 46 3 137 18 201 32 140 30 292 33 582
9 235 -20 272 -28 306 -68 24 -29 26 -37 21 -92 -11 -109 -35 -214 -57 -250
-33 -53 -299 -185 -453 -224 -187 -48 -273 -55 -438 -36 -376 43 -618 148
-811 354 -79 83 -130 165 -170 273 -80 220 -91 362 -85 1070 4 541 14 756 57
1213 6 61 14 177 19 259 12 208 0 201 266 161z m5134 -235 c81 -14 123 -36
189 -99 84 -80 121 -182 123 -335 1 -73 -144 -1515 -161 -1605 -16 -86 -32
-402 -25 -499 3 -51 20 -148 36 -215 17 -67 33 -154 36 -193 5 -62 2 -78 -19
-126 -27 -57 -69 -97 -129 -121 -53 -22 -493 -23 -574 -2 -94 25 -161 60 -219
115 -64 60 -107 138 -136 244 -78 283 -327 695 -649 1075 l-71 83 -35 -73
c-19 -41 -44 -114 -56 -164 -73 -313 -215 -854 -270 -1033 -30 -93 -97 -116
-181 -63 -40 25 -48 28 -59 15 -15 -18 -50 -18 -115 3 -46 14 -59 15 -93 3
-38 -12 -42 -11 -154 43 -227 111 -303 231 -406 642 -57 228 -150 634 -220
965 -34 157 -72 326 -86 375 -14 50 -36 155 -49 235 -32 190 -48 238 -96 296
-45 54 -55 92 -47 169 7 66 30 113 61 121 37 9 407 -107 516 -162 68 -34 146
-106 197 -184 59 -90 103 -221 216 -645 94 -352 117 -451 126 -545 5 -63 14
-131 18 -151 l8 -37 37 15 c31 12 52 37 119 137 106 159 164 281 196 414 35
147 50 187 87 235 82 108 155 124 361 84 72 -15 164 -31 205 -36 175 -23 274
-88 318 -206 9 -25 31 -60 49 -77 l32 -31 12 29 c6 16 17 83 25 149 33 282
118 509 268 718 30 42 103 146 162 233 59 86 118 163 130 170 55 36 208 52
323 34z"/>
<path d="M3103 6826 c-176 -43 -317 -172 -395 -363 -30 -72 -32 -87 -33 -198
0 -259 78 -379 589 -893 325 -329 581 -572 601 -572 33 0 639 592 884 865 197
219 258 314 296 460 64 247 -72 542 -301 656 -245 121 -493 53 -751 -208 -62
-62 -120 -113 -129 -113 -9 0 -54 40 -101 90 -103 109 -183 171 -289 222 -136
65 -253 82 -371 54z"/>
</g>
</svg>
