<?xml version="1.0" standalone="no"?>
<!DOCTYPE svg PUBLIC "-//W3C//DTD SVG 20010904//EN"
 "http://www.w3.org/TR/2001/REC-SVG-20010904/DTD/svg10.dtd">
<svg version="1.0" xmlns="http://www.w3.org/2000/svg"
 width="756.000000pt" height="756.000000pt" viewBox="0 0 756.000000 756.000000"
 preserveAspectRatio="xMidYMid meet">
<metadata>
Created by potrace 1.15, written by Peter Selinger 2001-2017
</metadata>
<g transform="translate(0.000000,756.000000) scale(0.100000,-0.100000)"
fill="#575757" stroke="none">
<path d="M0 3780 l0 -3780 3780 0 3780 0 0 3780 0 3780 -3780 0 -3780 0 0
-3780z m3318 3125 c157 -27 332 -128 477 -274 l69 -71 86 83 c162 158 320 243
498 267 73 11 100 10 169 -3 232 -45 421 -223 495 -464 30 -99 30 -252 0 -357
-42 -147 -107 -250 -277 -443 -97 -109 -492 -508 -727 -734 l-197 -189 -47 0
c-45 0 -49 3 -143 93 -375 361 -846 844 -954 979 -53 66 -121 199 -148 288
-35 113 -33 266 5 376 79 236 253 399 479 448 83 19 117 19 215 1z m-2101
-2769 c37 -8 97 -17 133 -21 118 -13 198 -64 362 -232 100 -103 107 -121 90
-247 -6 -45 -14 -130 -17 -191 -4 -60 -18 -258 -31 -440 -34 -440 -40 -833
-20 -1233 10 -210 19 -319 27 -329 34 -40 57 -39 319 14 116 24 138 25 310 20
256 -8 496 -33 535 -55 54 -32 60 -60 40 -186 -20 -128 -32 -165 -62 -200 -12
-13 -91 -59 -175 -101 -187 -92 -332 -133 -505 -142 -235 -12 -513 43 -708
140 -290 144 -451 352 -514 663 -32 154 -41 334 -41 784 0 451 7 615 46 1110
14 179 29 388 34 465 8 155 11 168 43 183 30 15 55 14 134 -2z m5280 -262 c40
-11 69 -29 118 -75 89 -84 114 -140 127 -283 9 -104 5 -157 -66 -853 -42 -408
-84 -788 -92 -845 -11 -69 -17 -177 -18 -328 -1 -224 -1 -226 32 -355 19 -71
36 -160 39 -197 5 -59 3 -74 -21 -122 -30 -61 -78 -103 -140 -120 -25 -8 -129
-13 -266 -15 -200 -1 -234 1 -305 19 -182 48 -284 151 -339 344 -87 299 -308
669 -630 1056 -43 52 -82 99 -87 104 -18 20 -88 -156 -119 -299 -55 -252 -234
-921 -265 -992 -30 -69 -97 -80 -171 -29 -34 23 -40 24 -54 11 -21 -19 -60
-19 -110 1 -26 11 -52 14 -73 9 -61 -13 -83 -8 -189 44 -89 43 -117 63 -170
119 -105 112 -148 212 -228 532 -60 237 -161 680 -229 1005 -28 132 -60 272
-71 310 -27 95 -37 146 -55 267 -20 135 -50 224 -90 269 -18 20 -38 53 -45 74
-15 46 -7 148 15 181 33 50 43 50 240 -10 278 -85 347 -116 426 -195 70 -71
123 -155 164 -266 15 -39 76 -252 136 -475 91 -334 112 -424 119 -514 7 -88
27 -211 35 -224 1 -1 17 4 36 12 24 10 52 39 90 93 121 170 197 321 229 458
47 203 73 252 157 305 70 44 116 47 278 17 77 -15 183 -34 235 -42 167 -28
236 -75 296 -200 18 -38 44 -78 59 -88 l25 -18 14 33 c8 18 17 69 21 113 9
110 41 263 75 367 44 133 117 267 239 443 266 383 232 348 351 371 76 15 201
10 277 -12z"/>
<path d="M3100 6829 c-184 -50 -335 -196 -407 -394 -25 -71 -25 -279 0 -350
43 -119 104 -215 212 -339 100 -114 460 -490 511 -535 21 -19 128 -121 238
-228 109 -106 204 -193 211 -193 16 0 561 528 744 722 307 324 362 397 428
573 24 64 28 237 8 315 -54 209 -227 384 -426 430 -75 17 -197 9 -279 -19
-132 -45 -306 -170 -401 -286 -31 -38 -60 -65 -71 -65 -10 0 -31 12 -45 28
-199 212 -315 294 -481 337 -66 16 -187 19 -242 4z"/>
</g>
</svg>
