<?xml version="1.0" standalone="no"?>
<!DOCTYPE svg PUBLIC "-//W3C//DTD SVG 20010904//EN"
 "http://www.w3.org/TR/2001/REC-SVG-20010904/DTD/svg10.dtd">
<svg version="1.0" xmlns="http://www.w3.org/2000/svg"
 width="600.000000pt" height="600.000000pt" viewBox="0 0 600.000000 600.000000"
 preserveAspectRatio="xMidYMid meet">
<metadata>
Created by potrace 1.15, written by Peter Selinger 2001-2017
</metadata>
<g transform="translate(0.000000,600.000000) scale(0.100000,-0.100000)"
fill="#575757" stroke="none">
<path d="M2961 5900 c-19 -11 -37 -23 -40 -28 -3 -5 -26 -19 -51 -31 -73 -36
-105 -54 -110 -61 -3 -4 -25 -17 -49 -30 -25 -12 -51 -29 -59 -36 -13 -13 -27
-18 -44 -15 -5 0 -8 -3 -8 -7 0 -4 -22 -19 -50 -33 -27 -13 -50 -27 -50 -30 0
-3 -22 -16 -50 -29 -27 -13 -50 -27 -50 -32 0 -5 -4 -6 -10 -3 -5 3 -10 1 -10
-4 0 -6 -9 -11 -20 -11 -11 0 -20 -5 -20 -11 0 -5 -4 -8 -9 -5 -5 3 -11 -1
-15 -9 -3 -8 -10 -15 -17 -15 -6 0 -24 -9 -40 -21 -16 -11 -29 -17 -29 -12 0
4 -4 3 -8 -3 -4 -6 -38 -28 -77 -49 -38 -20 -77 -43 -85 -50 -8 -6 -36 -22
-62 -34 -27 -13 -48 -27 -48 -32 0 -5 -9 -9 -20 -9 -11 0 -20 -4 -20 -8 0 -5
-27 -21 -60 -37 -33 -16 -60 -32 -60 -36 0 -7 -27 -19 -43 -19 -7 0 -20 -9
-52 -37 -7 -7 -21 -13 -29 -13 -9 0 -16 -5 -16 -11 0 -5 -4 -7 -10 -4 -5 3
-10 2 -10 -2 0 -5 -22 -20 -50 -34 -27 -13 -50 -28 -50 -32 0 -5 -4 -5 -10 -2
-5 3 -10 3 -10 -2 0 -4 -18 -17 -40 -27 -22 -11 -40 -23 -40 -28 0 -4 -3 -8
-7 -7 -16 2 -53 -14 -53 -23 0 -5 -4 -6 -10 -3 -5 3 -10 2 -10 -4 0 -6 -17
-18 -37 -28 -21 -9 -41 -22 -45 -27 -5 -7 -8 -7 -8 -1 0 7 -3 7 -8 0 -10 -14
-39 -31 -98 -59 -28 -13 -55 -29 -58 -35 -4 -6 -31 -22 -61 -36 -29 -14 -58
-32 -65 -40 -7 -8 -16 -12 -21 -9 -5 3 -9 0 -9 -6 0 -6 -4 -8 -10 -5 -5 3 -10
2 -10 -3 0 -5 -18 -17 -40 -27 -22 -10 -40 -22 -40 -27 0 -5 -4 -6 -10 -3 -5
3 -10 1 -10 -4 0 -6 -9 -11 -20 -11 -11 0 -20 -5 -20 -11 0 -5 -4 -7 -10 -4
-5 3 -10 2 -10 -3 0 -5 -18 -17 -40 -27 -22 -10 -40 -23 -40 -28 0 -6 -3 -8
-6 -4 -3 3 -11 2 -18 -4 -30 -25 -85 -57 -90 -51 -3 3 -6 0 -6 -6 0 -10 -40
-28 -49 -23 -2 2 -11 -8 -20 -22 -15 -23 -16 -152 -15 -1469 0 -1533 -2 -1476
44 -1486 8 -2 18 -8 21 -13 3 -6 12 -11 20 -13 15 -2 76 -38 96 -56 7 -6 13
-8 13 -5 0 7 84 -48 88 -58 2 -4 8 -5 13 -1 5 3 9 0 9 -5 0 -6 9 -11 20 -11
11 0 20 -5 20 -11 0 -5 5 -7 10 -4 6 3 10 2 10 -3 0 -5 18 -17 40 -27 22 -10
40 -22 40 -27 0 -5 5 -6 10 -3 6 3 10 1 10 -5 0 -6 4 -9 9 -6 5 3 14 -1 21 -9
6 -8 33 -24 58 -36 26 -12 54 -28 62 -35 8 -7 38 -24 65 -38 66 -35 88 -49 97
-61 4 -5 8 -6 8 -2 0 5 13 -1 29 -12 16 -12 34 -21 40 -21 7 0 14 -7 17 -15 4
-8 10 -12 15 -9 5 3 9 1 9 -4 0 -8 23 -19 46 -21 2 0 11 -6 19 -13 34 -31 50
-43 52 -40 7 6 23 1 35 -11 7 -7 34 -23 61 -37 26 -14 47 -29 47 -33 0 -5 5
-5 10 -2 6 3 10 1 10 -4 0 -6 7 -11 16 -11 8 0 22 -6 29 -13 34 -30 50 -42 52
-39 7 6 23 1 35 -11 7 -7 33 -24 58 -38 25 -13 48 -28 51 -32 3 -5 8 -8 10 -6
8 4 49 -13 49 -21 0 -4 21 -18 48 -31 26 -12 65 -34 87 -49 22 -14 61 -37 88
-50 26 -14 47 -29 47 -33 0 -5 5 -5 10 -2 6 3 10 2 10 -2 0 -5 18 -16 40 -26
22 -9 40 -22 40 -28 0 -5 4 -7 10 -4 5 3 10 1 10 -4 0 -6 9 -11 20 -11 11 0
20 -5 20 -11 0 -5 4 -7 10 -4 6 3 10 2 10 -3 0 -5 18 -17 40 -27 22 -10 40
-22 40 -27 0 -5 5 -6 10 -3 6 3 10 1 10 -6 0 -7 3 -10 6 -7 5 6 62 -27 94 -54
8 -7 17 -12 20 -11 9 5 40 -8 40 -16 0 -4 22 -18 50 -31 27 -13 50 -26 50 -29
0 -4 23 -17 50 -30 28 -13 50 -28 50 -32 0 -5 9 -9 19 -9 11 0 27 -8 36 -17
10 -9 33 -25 53 -36 35 -19 36 -19 79 3 24 12 43 25 43 29 0 4 21 17 48 30 68
32 106 53 112 61 3 4 25 17 49 30 25 12 51 29 59 36 13 13 27 18 45 15 4 0 7
3 7 7 0 4 22 19 50 33 27 13 50 27 50 30 0 3 23 16 50 29 28 13 50 27 50 32 0
5 5 6 10 3 6 -3 10 -1 10 4 0 6 9 11 20 11 11 0 20 5 20 11 0 5 5 7 10 4 6 -3
10 -1 10 4 0 6 18 19 40 28 22 10 40 21 40 26 0 4 5 5 10 2 6 -3 10 -3 10 2 0
4 21 19 48 33 26 13 65 36 87 50 22 15 61 37 88 49 26 13 47 27 47 32 0 5 9 9
20 9 11 0 20 5 20 11 0 5 5 7 10 4 6 -3 10 -2 10 3 0 5 23 19 50 32 28 13 50
27 50 31 0 8 31 20 41 16 3 -1 13 5 22 13 34 31 47 41 47 34 0 -4 9 1 20 11
11 10 20 14 20 9 0 -5 4 -4 8 2 4 6 27 21 52 35 25 13 51 30 58 36 12 12 19
14 37 13 3 -1 12 5 20 12 32 29 50 43 52 41 7 -4 43 11 43 19 0 5 5 6 10 3 6
-3 10 -2 10 4 0 6 17 18 38 28 20 9 40 22 44 27 5 7 8 7 8 1 0 -7 3 -7 8 0 9
12 31 26 97 61 28 14 57 31 65 38 8 7 36 23 62 35 25 12 52 28 58 36 7 8 16
12 21 9 5 -3 9 -1 9 4 0 5 23 19 50 32 28 13 50 27 50 32 0 5 5 6 10 3 6 -3
10 -1 10 4 0 6 9 11 20 11 11 0 20 5 20 11 0 5 4 8 9 5 5 -4 11 -3 13 1 5 12
88 64 88 56 0 -5 4 -3 8 3 4 6 32 24 62 40 30 15 57 31 60 35 3 4 12 9 20 11
44 9 43 -41 43 1488 0 1531 2 1478 -43 1488 -8 2 -17 7 -20 11 -3 4 -31 20
-62 36 -32 16 -58 33 -58 38 0 4 -4 5 -10 2 -5 -3 -10 -1 -10 4 0 6 -7 11 -16
11 -8 0 -22 6 -29 13 -34 30 -43 35 -49 30 -3 -4 -6 -1 -6 5 0 7 -9 12 -20 12
-11 0 -20 5 -20 11 0 5 -4 7 -10 4 -5 -3 -10 -2 -10 3 0 5 -18 17 -40 27 -22
10 -40 22 -40 27 0 5 -4 6 -10 3 -5 -3 -10 -1 -10 5 0 6 -4 9 -9 6 -5 -3 -14
1 -21 9 -6 8 -33 24 -58 36 -26 12 -54 28 -62 35 -8 7 -37 24 -65 38 -66 35
-88 49 -97 61 -4 6 -8 6 -8 2 0 -5 -12 0 -27 11 -16 10 -36 22 -45 25 -10 4
-18 11 -18 17 0 6 -4 8 -10 5 -5 -3 -10 -2 -10 3 0 8 -16 16 -43 20 -4 1 -14
7 -22 14 -35 31 -45 38 -59 38 -8 0 -21 6 -28 13 -7 7 -34 23 -60 37 -27 14
-48 29 -48 33 0 5 -4 5 -10 2 -5 -3 -10 -1 -10 4 0 6 -7 11 -16 11 -8 0 -22 6
-29 13 -32 28 -45 37 -52 37 -17 0 -43 12 -43 19 0 4 -27 21 -60 37 -33 16
-60 32 -60 37 0 4 -9 7 -20 7 -11 0 -20 4 -20 9 0 5 -21 19 -47 32 -27 12 -50
25 -53 28 -6 7 -28 19 -110 64 -30 17 -58 35 -62 41 -4 6 -8 7 -8 3 0 -5 -13
1 -29 12 -16 12 -34 21 -40 21 -7 0 -14 7 -17 15 -4 8 -10 12 -15 9 -5 -3 -9
0 -9 5 0 6 -9 11 -20 11 -11 0 -20 5 -20 11 0 5 -4 7 -10 4 -5 -3 -10 -2 -10
3 0 5 -18 17 -40 27 -22 10 -40 22 -40 27 0 5 -4 6 -10 3 -5 -3 -10 -3 -10 2
0 4 -23 19 -50 32 -28 14 -50 29 -50 34 0 4 -4 6 -9 2 -5 -3 -16 1 -24 9 -8 8
-17 12 -21 9 -3 -4 -6 -2 -6 4 0 5 -22 20 -50 33 -27 13 -50 26 -50 29 0 4
-22 17 -50 30 -27 13 -50 28 -50 32 0 5 -9 9 -19 9 -11 0 -27 8 -36 17 -19 18
-80 53 -92 52 -5 0 -23 -9 -42 -19z m-1376 -1995 c86 -16 138 -48 219 -135
l48 -52 -6 -96 c-3 -54 -16 -236 -27 -407 -20 -283 -21 -332 -10 -560 7 -142
17 -255 23 -262 14 -18 39 -16 164 8 103 21 119 21 274 10 195 -14 221 -19
237 -52 13 -27 -3 -134 -26 -177 -19 -36 -198 -118 -301 -138 -157 -31 -368 2
-515 79 -80 43 -185 147 -217 217 -62 131 -63 144 -63 625 1 338 5 480 18 613
9 95 17 199 17 232 0 32 4 70 10 84 12 31 40 33 155 11z m2913 -134 c18 -6 47
-22 65 -37 94 -78 97 -118 47 -607 -22 -216 -45 -426 -50 -467 -6 -41 -13
-131 -16 -200 -5 -109 -2 -140 19 -243 27 -125 25 -160 -10 -199 -36 -40 -64
-46 -209 -47 -249 -2 -311 37 -373 234 -28 88 -93 214 -169 328 -66 99 -220
297 -232 297 -15 0 -49 -106 -89 -270 -48 -203 -114 -439 -131 -469 -10 -20
-17 -22 -48 -17 -52 9 -140 17 -185 17 -77 -1 -206 89 -250 175 -34 67 -109
358 -197 769 -11 55 -32 145 -45 200 -13 55 -27 123 -31 150 -9 66 -26 112
-59 160 -22 33 -26 47 -20 80 3 22 14 48 23 57 16 16 23 15 112 -12 215 -64
270 -101 324 -214 40 -83 157 -527 167 -629 5 -48 11 -92 14 -97 30 -48 177
181 211 327 28 123 73 173 152 173 74 0 274 -40 316 -63 28 -15 48 -36 64 -67
48 -95 65 -91 77 19 18 167 65 284 181 454 113 163 132 186 167 196 43 12 135
13 175 2z"/>
</g>
</svg>
